<svg width="180" height="49" viewBox="0 0 180 49" fill="none" xmlns="http://www.w3.org/2000/svg">
<path d="M13.4025 9.16296C13.4025 10.2923 12.4865 11.2078 11.3575 11.2078C10.2285 11.2078 9.3125 10.2923 9.3125 9.16296C9.3125 8.03366 10.2285 7.11816 11.3575 7.11816C12.4865 7.11816 13.4025 8.03366 13.4025 9.16296Z" fill="#64D7D6"/>
<path d="M26.2687 9.16296C26.2687 10.2923 25.3527 11.2078 24.2237 11.2078C23.0947 11.2078 22.1787 10.2923 22.1787 9.16296C22.1787 8.03366 23.0947 7.11816 24.2237 7.11816C25.3527 7.11816 26.2687 8.03366 26.2687 9.16296Z" fill="#64D7D6"/>
<path d="M0 0V19.2202H15.629V20.8568L0 20.8578V49H9.08704L16.003 42.0841L12.028 38.1102L16.003 34.1359L14.841 32.9745L9.70599 38.1102L11.959 40.3638L7.41199 44.9109H4.09003V24.9469H31.491V44.9105H28.17L23.623 40.3633L25.876 38.1098L20.739 32.9741L19.578 34.1354L23.553 38.1098L19.578 42.0836L26.494 49H35.581V20.8578L19.952 20.8573V19.2207H35.581V0H0ZM31.491 15.1307H4.09003V3.7975H31.491V15.1307Z" fill="#64D7D6"/>
<path d="M14.4492 38.109L17.7902 34.7686L21.1302 38.1093L17.7902 41.4497L14.4492 38.109Z" fill="#64D7D6"/>
<path d="M45.321 19V1.54545H52.5994C53.9063 1.54545 55 1.73011 55.8807 2.09943C56.767 2.46875 57.4318 2.98579 57.875 3.65057C58.3239 4.31534 58.5483 5.08523 58.5483 5.96023C58.5483 6.625 58.4091 7.21875 58.1307 7.74148C57.8523 8.25852 57.4688 8.6875 56.9801 9.02841C56.4915 9.36932 55.9261 9.60795 55.2841 9.74432V9.91477C55.9886 9.94886 56.6392 10.1392 57.2358 10.4858C57.8381 10.8324 58.321 11.3153 58.6847 11.9347C59.0483 12.5483 59.2301 13.2756 59.2301 14.1165C59.2301 15.054 58.9915 15.892 58.5142 16.6307C58.0369 17.3636 57.3466 17.9432 56.4432 18.3693C55.5398 18.7898 54.4432 19 53.1534 19H45.321ZM49.5398 15.5994H52.1477C53.0625 15.5994 53.7358 15.4261 54.1676 15.0795C54.6051 14.733 54.8239 14.25 54.8239 13.6307C54.8239 13.1818 54.7188 12.7955 54.5085 12.4716C54.2983 12.142 54 11.8892 53.6136 11.7131C53.2273 11.5312 52.7642 11.4403 52.2244 11.4403H49.5398V15.5994ZM49.5398 8.72159H51.875C52.3352 8.72159 52.7443 8.64489 53.1023 8.49148C53.4602 8.33807 53.7386 8.11648 53.9375 7.8267C54.142 7.53693 54.2443 7.1875 54.2443 6.77841C54.2443 6.19318 54.0369 5.73295 53.6222 5.39773C53.2074 5.0625 52.6477 4.89489 51.9432 4.89489H49.5398V8.72159ZM61.2585 19V1.54545H65.4773V15.5739H72.7386V19H61.2585ZM78.9325 19H74.3984L80.2876 1.54545H85.9041L91.7933 19H87.2592L83.1598 5.94318H83.0234L78.9325 19ZM78.3274 12.1307H87.8047V15.3352H78.3274V12.1307ZM104.232 1.54545H108.442V12.804C108.442 14.1051 108.133 15.2386 107.513 16.2045C106.894 17.1648 106.031 17.9091 104.923 18.4375C103.815 18.9602 102.528 19.2216 101.062 19.2216C99.5788 19.2216 98.2834 18.9602 97.1754 18.4375C96.0675 17.9091 95.2067 17.1648 94.593 16.2045C93.9794 15.2386 93.6726 14.1051 93.6726 12.804V1.54545H97.8913V12.4375C97.8913 13.0398 98.022 13.5767 98.2834 14.0483C98.5504 14.5199 98.9226 14.8892 99.3999 15.1562C99.8771 15.4233 100.431 15.5568 101.062 15.5568C101.692 15.5568 102.244 15.4233 102.715 15.1562C103.192 14.8892 103.565 14.5199 103.832 14.0483C104.099 13.5767 104.232 13.0398 104.232 12.4375V1.54545ZM45.321 48V30.5455H52.5312C53.8381 30.5455 54.9659 30.7812 55.9148 31.2528C56.8693 31.7187 57.6051 32.3892 58.1222 33.2642C58.6392 34.1335 58.8977 35.1648 58.8977 36.358C58.8977 37.5682 58.6335 38.5966 58.1051 39.4432C57.5767 40.2841 56.8267 40.9261 55.8551 41.3693C54.8835 41.8068 53.733 42.0256 52.4034 42.0256H47.8438V38.7017H51.6193C52.2557 38.7017 52.7869 38.6193 53.2131 38.4545C53.6449 38.2841 53.9716 38.0284 54.1932 37.6875C54.4148 37.3409 54.5256 36.8977 54.5256 36.358C54.5256 35.8182 54.4148 35.3722 54.1932 35.0199C53.9716 34.6619 53.6449 34.3949 53.2131 34.2188C52.7813 34.0369 52.25 33.946 51.6193 33.946H49.5398V48H45.321ZM55.1477 40.0227L59.4943 48H54.892L50.6307 40.0227H55.1477ZM77.6861 39.2727C77.6861 41.1932 77.3168 42.821 76.5781 44.1562C75.8395 45.4915 74.8395 46.5057 73.5781 47.1989C72.3224 47.892 70.9134 48.2386 69.3509 48.2386C67.7827 48.2386 66.3707 47.8892 65.1151 47.1903C63.8594 46.4915 62.8622 45.4773 62.1236 44.1477C61.3906 42.8125 61.0241 41.1875 61.0241 39.2727C61.0241 37.3523 61.3906 35.7244 62.1236 34.3892C62.8622 33.054 63.8594 32.0398 65.1151 31.3466C66.3707 30.6534 67.7827 30.3068 69.3509 30.3068C70.9134 30.3068 72.3224 30.6534 73.5781 31.3466C74.8395 32.0398 75.8395 33.054 76.5781 34.3892C77.3168 35.7244 77.6861 37.3523 77.6861 39.2727ZM73.3736 39.2727C73.3736 38.1364 73.2116 37.1761 72.8878 36.392C72.5696 35.608 72.1094 35.0142 71.5071 34.6108C70.9105 34.2074 70.1918 34.0057 69.3509 34.0057C68.5156 34.0057 67.7969 34.2074 67.1946 34.6108C66.5923 35.0142 66.1293 35.608 65.8054 36.392C65.4872 37.1761 65.3281 38.1364 65.3281 39.2727C65.3281 40.4091 65.4872 41.3693 65.8054 42.1534C66.1293 42.9375 66.5923 43.5312 67.1946 43.9347C67.7969 44.3381 68.5156 44.5398 69.3509 44.5398C70.1918 44.5398 70.9105 44.3381 71.5071 43.9347C72.1094 43.5312 72.5696 42.9375 72.8878 42.1534C73.2116 41.3693 73.3736 40.4091 73.3736 39.2727ZM80.1491 48V30.5455H87.4276C88.7344 30.5455 89.8281 30.7301 90.7088 31.0994C91.5952 31.4687 92.2599 31.9858 92.7031 32.6506C93.152 33.3153 93.3764 34.0852 93.3764 34.9602C93.3764 35.625 93.2372 36.2188 92.9588 36.7415C92.6804 37.2585 92.2969 37.6875 91.8082 38.0284C91.3196 38.3693 90.7543 38.608 90.1122 38.7443V38.9148C90.8168 38.9489 91.4673 39.1392 92.0639 39.4858C92.6662 39.8324 93.1491 40.3153 93.5128 40.9347C93.8764 41.5483 94.0582 42.2756 94.0582 43.1165C94.0582 44.054 93.8196 44.892 93.3423 45.6307C92.8651 46.3636 92.1747 46.9432 91.2713 47.3693C90.3679 47.7898 89.2713 48 87.9815 48H80.1491ZM84.3679 44.5994H86.9759C87.8906 44.5994 88.5639 44.4261 88.9957 44.0795C89.4332 43.733 89.652 43.25 89.652 42.6307C89.652 42.1818 89.5469 41.7955 89.3366 41.4716C89.1264 41.142 88.8281 40.8892 88.4418 40.7131C88.0554 40.5312 87.5923 40.4403 87.0526 40.4403H84.3679V44.5994ZM84.3679 37.7216H86.7031C87.1634 37.7216 87.5724 37.6449 87.9304 37.4915C88.2884 37.3381 88.5668 37.1165 88.7656 36.8267C88.9702 36.5369 89.0724 36.1875 89.0724 35.7784C89.0724 35.1932 88.8651 34.733 88.4503 34.3977C88.0355 34.0625 87.4759 33.8949 86.7713 33.8949H84.3679V37.7216ZM112.561 39.2727C112.561 41.1932 112.192 42.821 111.453 44.1562C110.714 45.4915 109.714 46.5057 108.453 47.1989C107.197 47.892 105.788 48.2386 104.226 48.2386C102.658 48.2386 101.246 47.8892 99.9901 47.1903C98.7344 46.4915 97.7372 45.4773 96.9986 44.1477C96.2656 42.8125 95.8991 41.1875 95.8991 39.2727C95.8991 37.3523 96.2656 35.7244 96.9986 34.3892C97.7372 33.054 98.7344 32.0398 99.9901 31.3466C101.246 30.6534 102.658 30.3068 104.226 30.3068C105.788 30.3068 107.197 30.6534 108.453 31.3466C109.714 32.0398 110.714 33.054 111.453 34.3892C112.192 35.7244 112.561 37.3523 112.561 39.2727ZM108.249 39.2727C108.249 38.1364 108.087 37.1761 107.763 36.392C107.445 35.608 106.984 35.0142 106.382 34.6108C105.786 34.2074 105.067 34.0057 104.226 34.0057C103.391 34.0057 102.672 34.2074 102.07 34.6108C101.467 35.0142 101.004 35.608 100.68 36.392C100.362 37.1761 100.203 38.1364 100.203 39.2727C100.203 40.4091 100.362 41.3693 100.68 42.1534C101.004 42.9375 101.467 43.5312 102.07 43.9347C102.672 44.3381 103.391 44.5398 104.226 44.5398C105.067 44.5398 105.786 44.3381 106.382 43.9347C106.984 43.5312 107.445 42.9375 107.763 42.1534C108.087 41.3693 108.249 40.4091 108.249 39.2727ZM113.656 33.9716V30.5455H128.409V33.9716H123.116V48H118.957V33.9716H113.656ZM134.688 30.5455V48H130.469V30.5455H134.688ZM153.18 36.8693H148.919C148.862 36.4318 148.746 36.0369 148.57 35.6847C148.393 35.3324 148.161 35.0312 147.871 34.7812C147.581 34.5312 147.237 34.3409 146.839 34.2102C146.447 34.0739 146.013 34.0057 145.536 34.0057C144.689 34.0057 143.959 34.2131 143.345 34.6278C142.737 35.0426 142.268 35.642 141.939 36.4261C141.615 37.2102 141.453 38.1591 141.453 39.2727C141.453 40.4318 141.618 41.4034 141.947 42.1875C142.283 42.9659 142.751 43.554 143.354 43.9517C143.962 44.3437 144.68 44.5398 145.51 44.5398C145.976 44.5398 146.399 44.4801 146.78 44.3608C147.166 44.2415 147.504 44.0682 147.794 43.8409C148.089 43.608 148.331 43.3267 148.518 42.9972C148.712 42.6619 148.845 42.2841 148.919 41.8636L153.18 41.8892C153.107 42.6619 152.882 43.4233 152.507 44.1733C152.138 44.9233 151.629 45.608 150.982 46.2273C150.334 46.8409 149.544 47.3295 148.612 47.6932C147.686 48.0568 146.624 48.2386 145.425 48.2386C143.845 48.2386 142.43 47.892 141.18 47.1989C139.936 46.5 138.953 45.483 138.232 44.1477C137.51 42.8125 137.149 41.1875 137.149 39.2727C137.149 37.3523 137.516 35.7244 138.249 34.3892C138.982 33.054 139.973 32.0398 141.223 31.3466C142.473 30.6534 143.874 30.3068 145.425 30.3068C146.482 30.3068 147.459 30.4545 148.357 30.75C149.254 31.0398 150.044 31.4659 150.726 32.0284C151.408 32.5852 151.962 33.2699 152.388 34.0824C152.814 34.8949 153.078 35.8239 153.18 36.8693ZM165.029 35.7784C164.972 35.1534 164.719 34.6676 164.271 34.321C163.827 33.9688 163.194 33.7926 162.37 33.7926C161.825 33.7926 161.37 33.8636 161.006 34.0057C160.643 34.1477 160.37 34.3438 160.188 34.5938C160.006 34.8381 159.913 35.1193 159.907 35.4375C159.896 35.6989 159.947 35.929 160.06 36.1278C160.18 36.3267 160.35 36.5028 160.572 36.6562C160.799 36.804 161.072 36.9347 161.39 37.0483C161.708 37.1619 162.066 37.2614 162.464 37.3466L163.964 37.6875C164.827 37.875 165.589 38.125 166.248 38.4375C166.913 38.75 167.469 39.1222 167.918 39.554C168.373 39.9858 168.717 40.483 168.95 41.0455C169.183 41.608 169.302 42.2386 169.308 42.9375C169.302 44.0398 169.023 44.9858 168.472 45.7756C167.921 46.5653 167.129 47.1705 166.094 47.5909C165.066 48.0114 163.825 48.2216 162.37 48.2216C160.91 48.2216 159.637 48.0028 158.552 47.5653C157.467 47.1278 156.623 46.4631 156.021 45.571C155.418 44.679 155.109 43.5511 155.092 42.1875H159.131C159.165 42.75 159.316 43.2188 159.583 43.5938C159.85 43.9688 160.217 44.2528 160.683 44.446C161.154 44.6392 161.7 44.7358 162.319 44.7358C162.887 44.7358 163.37 44.6591 163.768 44.5057C164.171 44.3523 164.481 44.1392 164.697 43.8665C164.913 43.5937 165.023 43.2812 165.029 42.929C165.023 42.5994 164.921 42.3182 164.722 42.0852C164.523 41.8466 164.217 41.642 163.802 41.4716C163.393 41.2955 162.87 41.1335 162.234 40.9858L160.41 40.5597C158.898 40.2131 157.708 39.6534 156.839 38.8807C155.969 38.1023 155.538 37.0511 155.543 35.7273C155.538 34.6477 155.827 33.7017 156.413 32.8892C156.998 32.0767 157.808 31.4432 158.842 30.9886C159.876 30.5341 161.055 30.3068 162.379 30.3068C163.731 30.3068 164.904 30.5369 165.898 30.9972C166.898 31.4517 167.674 32.0909 168.225 32.9148C168.776 33.7386 169.058 34.6932 169.069 35.7784H165.029Z" fill="#3276A0"/>
</svg>
